<?xml version="1.0" encoding="UTF-8"?>
<svg version="1.1" xmlns="http://www.w3.org/2000/svg" width="512" height="512">
<path d="M0 0 C1.77656264 -0.00435235 3.5531234 -0.00953724 5.3296814 -0.01548767 C10.13554019 -0.02883265 14.94132012 -0.02946136 19.74719381 -0.02692437 C23.76787605 -0.02585159 27.78854254 -0.03074587 31.80922139 -0.03552979 C41.29925863 -0.04660943 50.7892563 -0.04707109 60.27929688 -0.04101562 C70.05013042 -0.0349766 79.82081993 -0.04728861 89.59162891 -0.06858569 C97.99871607 -0.08623251 106.40575752 -0.09219819 114.81286252 -0.08894795 C119.82601474 -0.08713985 124.8390642 -0.08972389 129.85219955 -0.10366249 C134.56860667 -0.11628641 139.28479011 -0.11425374 144.001194 -0.1012516 C145.7252434 -0.09889618 147.44930877 -0.10158313 149.17333984 -0.10987473 C165.03262055 -0.18060817 178.43681481 2.07469503 190.52392578 13.12231445 C200.25684679 24.02239469 201.74658636 34.7258909 201.71322632 48.70941162 C201.71696506 50.19254387 201.72156748 51.67567415 201.72695696 53.15880132 C201.73917471 57.22633838 201.73892794 61.29379312 201.73656821 65.36134434 C201.73615974 69.75139695 201.74720216 74.14142328 201.75668335 78.53146362 C201.77328769 87.12953673 201.77879264 95.72758241 201.77990811 104.32567021 C201.78085887 111.31578331 201.78497056 118.30588738 201.79130936 125.29599762 C201.80892037 145.1204331 201.81814847 164.94484694 201.81664841 184.7692903 C201.8165685 185.83776093 201.81648858 186.90623155 201.81640625 188.00708008 C201.81632449 189.07685747 201.81624273 190.14663486 201.81615849 191.24882975 C201.81534567 208.58421481 201.83448268 225.91951296 201.86268298 243.25487289 C201.89141982 261.06075921 201.90522283 278.86660315 201.90349543 296.67251325 C201.9028318 306.66673023 201.90831241 316.66085611 201.92985153 326.65505219 C201.94807385 335.16469532 201.95240203 343.67420606 201.93883269 352.18386027 C201.9323083 356.52348538 201.93216661 360.86285656 201.94953918 365.20245743 C201.96529855 369.18008457 201.96237736 373.15725705 201.94497092 377.1348733 C201.9419073 378.56890348 201.94550931 380.00296783 201.95669107 381.43695769 C202.05294889 394.66417661 199.2172417 405.15642124 190.44580078 415.2746582 C177.51352692 427.41610956 163.8559195 428.57680697 146.89160156 428.54931641 C145.11503893 428.55366876 143.33847817 428.55885365 141.56192017 428.56480408 C136.75606138 428.57814905 131.95028145 428.57877777 127.14440775 428.57624078 C123.12372551 428.575168 119.10305903 428.58006228 115.08238018 428.5848462 C105.59234293 428.59592584 96.10234527 428.59638749 86.61230469 428.59033203 C76.84147114 428.58429301 67.07078163 428.59660502 57.29997265 428.6179021 C48.89288549 428.63554892 40.48584404 428.6415146 32.07873905 428.63826436 C27.06558683 428.63645626 22.05253736 428.6390403 17.03940201 428.6529789 C12.3229949 428.66560282 7.60681145 428.66357014 2.89040756 428.65056801 C1.16635816 428.64821259 -0.55770721 428.65089953 -2.28173828 428.65919113 C-18.14101899 428.72992457 -31.54521325 426.47462138 -43.63232422 415.42700195 C-53.36524523 404.52692171 -54.8549848 393.8234255 -54.82162476 379.83990479 C-54.8253635 378.35677254 -54.82996592 376.87364226 -54.8353554 375.39051509 C-54.84757315 371.32297803 -54.84732638 367.25552329 -54.84496665 363.18797207 C-54.84455817 358.79791945 -54.8556006 354.40789312 -54.86508179 350.01785278 C-54.88168613 341.41977968 -54.88719108 332.82173399 -54.88830654 324.22364619 C-54.8892573 317.23353309 -54.89336899 310.24342903 -54.89970779 303.25331879 C-54.9173188 283.42888331 -54.92654691 263.60446947 -54.92504685 243.78002611 C-54.92496693 242.71155548 -54.92488702 241.64308485 -54.92480469 240.54223633 C-54.92472293 239.47245894 -54.92464116 238.40268154 -54.92455693 237.30048665 C-54.92374411 219.9651016 -54.94288111 202.62980344 -54.97108142 185.29444352 C-54.99981826 167.4885572 -55.01362127 149.68271325 -55.01189387 131.87680316 C-55.01123024 121.88258618 -55.01671085 111.8884603 -55.03824997 101.89426422 C-55.05647229 93.38462108 -55.06080046 84.87511035 -55.04723112 76.36545613 C-55.04070674 72.02583102 -55.04056504 67.68645984 -55.05793762 63.34685898 C-55.07369699 59.36923183 -55.07077579 55.39205935 -55.05336936 51.41444311 C-55.05030573 49.98041293 -55.05390775 48.54634857 -55.06508951 47.11235872 C-55.16134733 33.88513979 -52.32564014 23.39289517 -43.55419922 13.2746582 C-30.62192536 1.13320684 -16.96431793 -0.02749056 0 0 Z M-11.55419922 44.2746582 C-11.55419922 71.9946582 -11.55419922 99.7146582 -11.55419922 128.2746582 C44.54580078 128.2746582 100.64580078 128.2746582 158.44580078 128.2746582 C158.44580078 100.5546582 158.44580078 72.8346582 158.44580078 44.2746582 C102.34580078 44.2746582 46.24580078 44.2746582 -11.55419922 44.2746582 Z M-11.55419922 172.2746582 C-11.55419922 199.9946582 -11.55419922 227.7146582 -11.55419922 256.2746582 C44.54580078 256.2746582 100.64580078 256.2746582 158.44580078 256.2746582 C158.44580078 228.5546582 158.44580078 200.8346582 158.44580078 172.2746582 C102.34580078 172.2746582 46.24580078 172.2746582 -11.55419922 172.2746582 Z M-11.55419922 300.2746582 C-11.55419922 327.9946582 -11.55419922 355.7146582 -11.55419922 384.2746582 C44.54580078 384.2746582 100.64580078 384.2746582 158.44580078 384.2746582 C158.44580078 356.5546582 158.44580078 328.8346582 158.44580078 300.2746582 C102.34580078 300.2746582 46.24580078 300.2746582 -11.55419922 300.2746582 Z " fill="#000000" transform="translate(182.55419921875,41.725341796875)"/>
</svg>
